<svg width="121" height="140" viewBox="0 0 121 140" fill="none" xmlns="http://www.w3.org/2000/svg">
<path d="M13 14C13 8.47716 17.4772 4.00001 23 4.00001H54V16H13V14Z" fill="#1A073B"/>
<path d="M84 14C84 8.47715 88.4772 4 94 4H110V16H84V14Z" fill="#1A073B"/>
<path d="M54.0001 16L12.9879 57.0122L11.5737 55.598C7.66841 51.6927 7.66842 45.3611 11.5737 41.4558L45.5148 7.51472L54.0001 16Z" fill="#1A073B"/>
<path d="M36 32L36 69C36 74.5228 31.5228 79 26 79L24 79L24 32L36 32Z" fill="#1A073B"/>
<path d="M68.2842 55.69L55.5563 68.4179C51.6511 72.3232 45.3194 72.3232 41.4142 68.4179L40 67.0037L59.799 47.2047L68.2842 55.69Z" fill="#1A073B"/>
<path d="M51.31 55.69L64.0379 68.4179C67.9432 72.3232 74.2748 72.3232 78.1801 68.4179L79.5943 67.0037L59.7953 47.2047L51.31 55.69Z" fill="#1A073B"/>
<path d="M121 29L121 69C121 74.5228 116.523 79 111 79L109 79L109 29L121 29Z" fill="#1A073B"/>
<path d="M96 15L96 79L94 79C88.4772 79 84 74.5228 84 69L84 15L96 15Z" fill="#1A073B"/>
<path d="M24 90L43.2097 81.648C45.637 80.5926 48.3837 80.5426 50.8478 81.509L72.5 90L92.2024 98.384C94.6346 99.419 97.3777 99.4489 99.8319 98.4673L121 90V100L99.8319 108.467C97.3777 109.449 94.6347 109.419 92.2024 108.384L72.5 100L50.8478 91.509C48.3837 90.5426 45.637 90.5926 43.2097 91.648L24 100V90Z" fill="#1A073B"/>
<path d="M24 105L43.2097 96.648C45.637 95.5926 48.3837 95.5426 50.8478 96.509L72.5 105L92.2024 113.384C94.6346 114.419 97.3777 114.449 99.8319 113.467L121 105V115L99.8319 123.467C97.3777 124.449 94.6347 124.419 92.2024 123.384L72.5 115L50.8478 106.509C48.3837 105.543 45.637 105.593 43.2097 106.648L24 115V105Z" fill="#1A073B"/>
<path d="M24 120L43.2097 111.648C45.637 110.593 48.3837 110.543 50.8478 111.509L72.5 120L92.2024 128.384C94.6346 129.419 97.3777 129.449 99.8319 128.467L121 120V130L99.8319 138.467C97.3777 139.449 94.6347 139.419 92.2024 138.384L72.5 130L50.8478 121.509C48.3837 120.543 45.637 120.593 43.2097 121.648L24 130V120Z" fill="#1A073B"/>
<path d="M9 10C9 4.47716 13.4772 7.62939e-06 19 7.62939e-06H50V12H9V10Z" fill="#EDEDED"/>
<path d="M80 10C80 4.47715 84.4772 0 90 0H106V12H80V10Z" fill="#EDEDED"/>
<path d="M50.0001 12L8.98787 53.0122L7.57366 51.598C3.66841 47.6927 3.66842 41.3611 7.57366 37.4558L41.5148 3.51472L50.0001 12Z" fill="#EDEDED"/>
<path d="M32 28L32 65C32 70.5229 27.5228 75 22 75L20 75L20 28L32 28Z" fill="#EDEDED"/>
<path d="M64.2842 51.69L51.5563 64.4179C47.6511 68.3232 41.3194 68.3232 37.4142 64.4179L36 63.0037L55.799 43.2047L64.2842 51.69Z" fill="#EDEDED"/>
<path d="M47.31 51.69L60.0379 64.4179C63.9432 68.3232 70.2748 68.3232 74.1801 64.4179L75.5943 63.0037L55.7953 43.2047L47.31 51.69Z" fill="#EDEDED"/>
<path d="M117 25L117 65C117 70.5228 112.523 75 107 75L105 75L105 25L117 25Z" fill="#EDEDED"/>
<path d="M92 11L92 75L90 75C84.4772 75 80 70.5228 80 65L80 11L92 11Z" fill="#EDEDED"/>
<path d="M20 86L39.2097 77.648C41.637 76.5926 44.3837 76.5426 46.8478 77.509L68.5 86L88.2024 94.384C90.6347 95.419 93.3777 95.4489 95.8319 94.4673L117 86V96L95.8319 104.467C93.3777 105.449 90.6347 105.419 88.2024 104.384L68.5 96L46.8478 87.509C44.3837 86.5426 41.637 86.5926 39.2097 87.648L20 96V86Z" fill="#EDEDED"/>
<path d="M20 101L39.2097 92.648C41.637 91.5926 44.3837 91.5426 46.8478 92.509L68.5 101L88.2024 109.384C90.6347 110.419 93.3777 110.449 95.8319 109.467L117 101V111L95.8319 119.467C93.3777 120.449 90.6347 120.419 88.2024 119.384L68.5 111L46.8478 102.509C44.3837 101.543 41.637 101.593 39.2097 102.648L20 111V101Z" fill="#EDEDED"/>
<path d="M20 116L39.2097 107.648C41.637 106.593 44.3837 106.543 46.8478 107.509L68.5 116L88.2024 124.384C90.6347 125.419 93.3777 125.449 95.8319 124.467L117 116V126L95.8319 134.467C93.3777 135.449 90.6347 135.419 88.2024 134.384L68.5 126L46.8478 117.509C44.3837 116.543 41.637 116.593 39.2097 117.648L20 126V116Z" fill="#EDEDED"/>
</svg>
