<svg width="1730" height="143" viewBox="0 0 1730 143" fill="none" xmlns="http://www.w3.org/2000/svg">
<g id="Seg">
<g id="Group 20">
<g id="Group 16">
<g id="Group 6">
<path id="path" d="M3 9.70076C8.63513 0.766415 14.2703 0.766415 19.9054 9.70076C25.5405 18.6351 31.1757 18.6351 36.8108 9.70076" stroke="#118AB2" stroke-opacity="0.2" stroke-width="5"/>
<path id="path_2" d="M36.811 9.70076C42.4462 0.766415 48.0813 0.766415 53.7164 9.70076C59.3516 18.6351 64.9867 18.6351 70.6218 9.70076" stroke="#118AB2" stroke-opacity="0.2" stroke-width="5"/>
<path id="path_3" d="M70.6216 9.70076C76.2567 0.766415 81.8918 0.766415 87.527 9.70076C93.1621 18.6351 98.7972 18.6351 104.432 9.70076" stroke="#118AB2" stroke-opacity="0.2" stroke-width="5"/>
</g>
<g id="Group 7">
<path id="path_4" d="M128.583 9.70073C134.218 18.6351 139.853 18.6351 145.488 9.70073C151.124 0.766394 156.759 0.766394 162.394 9.70073" stroke="#118AB2" stroke-opacity="0.2" stroke-width="5"/>
<path id="path_5" d="M162.394 9.70073C168.029 18.6351 173.664 18.6351 179.299 9.70073C184.935 0.766394 190.57 0.766394 196.205 9.70073" stroke="#118AB2" stroke-opacity="0.2" stroke-width="5"/>
<path id="path_6" d="M196.205 9.70073C201.84 18.6351 207.475 18.6351 213.11 9.70073C218.745 0.766394 224.38 0.766394 230.015 9.70073" stroke="#118AB2" stroke-opacity="0.2" stroke-width="5"/>
<path id="path_7" d="M230.016 9.70073C235.651 18.6351 241.286 18.6351 246.921 9.70073C252.556 0.766394 258.191 0.766394 263.826 9.70073" stroke="#118AB2" stroke-opacity="0.2" stroke-width="5"/>
</g>
<g id="Group 8">
<path id="path_8" d="M287.977 9.70076C293.612 0.766415 299.247 0.766415 304.882 9.70076C310.517 18.6351 316.152 18.6351 321.787 9.70076" stroke="#118AB2" stroke-opacity="0.2" stroke-width="5"/>
<path id="path_9" d="M321.788 9.70076C327.423 0.766415 333.058 0.766415 338.693 9.70076C344.328 18.6351 349.963 18.6351 355.598 9.70076" stroke="#118AB2" stroke-opacity="0.2" stroke-width="5"/>
<path id="path_10" d="M355.598 9.70076C361.233 0.766415 366.868 0.766415 372.504 9.70076C378.139 18.6351 383.774 18.6351 389.409 9.70076" stroke="#118AB2" stroke-opacity="0.2" stroke-width="5"/>
</g>
<g id="Group 9">
<path id="path_11" d="M413.56 9.70073C419.195 18.6351 424.83 18.6351 430.465 9.70073C436.1 0.766394 441.735 0.766394 447.37 9.70073" stroke="#118AB2" stroke-opacity="0.2" stroke-width="5"/>
<path id="path_12" d="M447.371 9.70073C453.006 18.6351 458.641 18.6351 464.276 9.70073C469.911 0.766394 475.546 0.766394 481.181 9.70073" stroke="#118AB2" stroke-opacity="0.2" stroke-width="5"/>
<path id="path_13" d="M481.181 9.70073C486.816 18.6351 492.451 18.6351 498.087 9.70073C503.722 0.766394 509.357 0.766394 514.992 9.70073" stroke="#118AB2" stroke-opacity="0.2" stroke-width="5"/>
<path id="path_14" d="M514.992 9.70073C520.627 18.6351 526.262 18.6351 531.898 9.70073C537.533 0.766394 543.168 0.766394 548.803 9.70073" stroke="#118AB2" stroke-opacity="0.2" stroke-width="5"/>
</g>
<g id="Group 14">
<g id="Group 10">
<path id="path_15" d="M857.93 9.70076C863.565 0.766415 869.2 0.766415 874.836 9.70076C880.471 18.6351 886.106 18.6351 891.741 9.70076" stroke="#118AB2" stroke-opacity="0.2" stroke-width="5"/>
<path id="path_16" d="M891.741 9.70076C897.376 0.766415 903.011 0.766415 908.647 9.70076C914.282 18.6351 919.917 18.6351 925.552 9.70076" stroke="#118AB2" stroke-opacity="0.2" stroke-width="5"/>
<path id="path_17" d="M925.552 9.70076C931.187 0.766415 936.822 0.766415 942.457 9.70076C948.092 18.6351 953.727 18.6351 959.363 9.70076" stroke="#118AB2" stroke-opacity="0.2" stroke-width="5"/>
</g>
<g id="Group 11">
<path id="path_18" d="M983.513 9.70073C989.148 18.6351 994.783 18.6351 1000.42 9.70073C1006.05 0.766394 1011.69 0.766394 1017.32 9.70073" stroke="#118AB2" stroke-opacity="0.2" stroke-width="5"/>
<path id="path_19" d="M1017.32 9.70073C1022.96 18.6351 1028.59 18.6351 1034.23 9.70073C1039.86 0.766394 1045.5 0.766394 1051.14 9.70073" stroke="#118AB2" stroke-opacity="0.2" stroke-width="5"/>
<path id="path_20" d="M1051.13 9.70073C1056.77 18.6351 1062.41 18.6351 1068.04 9.70073C1073.68 0.766394 1079.31 0.766394 1084.95 9.70073" stroke="#118AB2" stroke-opacity="0.2" stroke-width="5"/>
<path id="path_21" d="M1084.95 9.70073C1090.58 18.6351 1096.22 18.6351 1101.85 9.70073C1107.49 0.766394 1113.12 0.766394 1118.76 9.70073" stroke="#118AB2" stroke-opacity="0.2" stroke-width="5"/>
</g>
<g id="Group 12">
<path id="path_22" d="M572.954 9.70076C578.589 0.766415 584.224 0.766415 589.859 9.70076C595.494 18.6351 601.129 18.6351 606.764 9.70076" stroke="#118AB2" stroke-opacity="0.2" stroke-width="5"/>
<path id="path_23" d="M606.765 9.70076C612.4 0.766415 618.035 0.766415 623.67 9.70076C629.305 18.6351 634.94 18.6351 640.575 9.70076" stroke="#118AB2" stroke-opacity="0.2" stroke-width="5"/>
<path id="path_24" d="M640.575 9.70076C646.21 0.766415 651.845 0.766415 657.481 9.70076C663.116 18.6351 668.751 18.6351 674.386 9.70076" stroke="#118AB2" stroke-opacity="0.2" stroke-width="5"/>
</g>
<g id="Group 13">
<path id="path_25" d="M698.537 9.70073C704.172 18.6351 709.807 18.6351 715.442 9.70073C721.077 0.766394 726.712 0.766394 732.347 9.70073" stroke="#118AB2" stroke-opacity="0.2" stroke-width="5"/>
<path id="path_26" d="M732.348 9.70073C737.983 18.6351 743.618 18.6351 749.253 9.70073C754.888 0.766394 760.523 0.766394 766.158 9.70073" stroke="#118AB2" stroke-opacity="0.2" stroke-width="5"/>
<path id="path_27" d="M766.158 9.70073C771.793 18.6351 777.428 18.6351 783.064 9.70073C788.699 0.766394 794.334 0.766394 799.969 9.70073" stroke="#118AB2" stroke-opacity="0.2" stroke-width="5"/>
<path id="path_28" d="M799.969 9.70073C805.604 18.6351 811.24 18.6351 816.875 9.70073C822.51 0.766394 828.145 0.766394 833.78 9.70073" stroke="#118AB2" stroke-opacity="0.2" stroke-width="5"/>
</g>
</g>
<g id="Group 15">
<g id="Group 10_2">
<path id="path_29" d="M1427.88 9.70076C1433.52 0.766415 1439.15 0.766415 1444.79 9.70076C1450.42 18.6351 1456.06 18.6351 1461.69 9.70076" stroke="#118AB2" stroke-opacity="0.2" stroke-width="5"/>
<path id="path_30" d="M1461.69 9.70076C1467.33 0.766415 1472.96 0.766415 1478.6 9.70076C1484.23 18.6351 1489.87 18.6351 1495.51 9.70076" stroke="#118AB2" stroke-opacity="0.2" stroke-width="5"/>
<path id="path_31" d="M1495.51 9.70076C1501.14 0.766415 1506.78 0.766415 1512.41 9.70076C1518.05 18.6351 1523.68 18.6351 1529.32 9.70076" stroke="#118AB2" stroke-opacity="0.2" stroke-width="5"/>
</g>
<g id="Group 11_2">
<path id="path_32" d="M1553.47 9.70073C1559.1 18.6351 1564.74 18.6351 1570.37 9.70073C1576.01 0.766394 1581.64 0.766394 1587.28 9.70073" stroke="#118AB2" stroke-opacity="0.2" stroke-width="5"/>
<path id="path_33" d="M1587.28 9.70073C1592.91 18.6351 1598.55 18.6351 1604.18 9.70073C1609.82 0.766394 1615.45 0.766394 1621.09 9.70073" stroke="#118AB2" stroke-opacity="0.2" stroke-width="5"/>
<path id="path_34" d="M1621.09 9.70073C1626.72 18.6351 1632.36 18.6351 1637.99 9.70073C1643.63 0.766394 1649.26 0.766394 1654.9 9.70073" stroke="#118AB2" stroke-opacity="0.2" stroke-width="5"/>
<path id="path_35" d="M1654.9 9.70073C1660.53 18.6351 1666.17 18.6351 1671.8 9.70073C1677.44 0.766394 1683.07 0.766394 1688.71 9.70073" stroke="#118AB2" stroke-opacity="0.2" stroke-width="5"/>
</g>
<g id="Group 12_2">
<path id="path_36" d="M1142.91 9.70076C1148.54 0.766415 1154.18 0.766415 1159.81 9.70076C1165.45 18.6351 1171.08 18.6351 1176.72 9.70076" stroke="#118AB2" stroke-opacity="0.2" stroke-width="5"/>
<path id="path_37" d="M1176.72 9.70076C1182.35 0.766415 1187.99 0.766415 1193.62 9.70076C1199.26 18.6351 1204.89 18.6351 1210.53 9.70076" stroke="#118AB2" stroke-opacity="0.2" stroke-width="5"/>
<path id="path_38" d="M1210.53 9.70076C1216.16 0.766415 1221.8 0.766415 1227.43 9.70076C1233.07 18.6351 1238.7 18.6351 1244.34 9.70076" stroke="#118AB2" stroke-opacity="0.2" stroke-width="5"/>
</g>
<g id="Group 13_2">
<path id="path_39" d="M1268.49 9.70073C1274.13 18.6351 1279.76 18.6351 1285.4 9.70073C1291.03 0.766394 1296.67 0.766394 1302.3 9.70073" stroke="#118AB2" stroke-opacity="0.2" stroke-width="5"/>
<path id="path_40" d="M1302.3 9.70073C1307.94 18.6351 1313.57 18.6351 1319.21 9.70073C1324.84 0.766394 1330.48 0.766394 1336.11 9.70073" stroke="#118AB2" stroke-opacity="0.2" stroke-width="5"/>
<path id="path_41" d="M1336.11 9.70073C1341.75 18.6351 1347.38 18.6351 1353.02 9.70073C1358.65 0.766394 1364.29 0.766394 1369.92 9.70073" stroke="#118AB2" stroke-opacity="0.2" stroke-width="5"/>
<path id="path_42" d="M1369.92 9.70073C1375.56 18.6351 1381.19 18.6351 1386.83 9.70073C1392.46 0.766394 1398.1 0.766394 1403.73 9.70073" stroke="#118AB2" stroke-opacity="0.2" stroke-width="5"/>
</g>
</g>
</g>
<g id="Group 17">
<g id="Group 6_2">
<path id="path_43" d="M41.29 56.606C46.9252 47.6717 52.5603 47.6717 58.1954 56.606C63.8306 65.5404 69.4657 65.5404 75.1008 56.606" stroke="#118AB2" stroke-opacity="0.2" stroke-width="5"/>
<path id="path_44" d="M75.1011 56.606C80.7362 47.6717 86.3713 47.6717 92.0065 56.606C97.6416 65.5404 103.277 65.5404 108.912 56.606" stroke="#118AB2" stroke-opacity="0.2" stroke-width="5"/>
<path id="path_45" d="M108.912 56.606C114.547 47.6717 120.182 47.6717 125.817 56.606C131.452 65.5404 137.087 65.5404 142.722 56.606" stroke="#118AB2" stroke-opacity="0.2" stroke-width="5"/>
</g>
<g id="Group 7_2">
<path id="path_46" d="M166.873 56.606C172.508 65.5403 178.143 65.5403 183.778 56.606C189.414 47.6717 195.049 47.6717 200.684 56.606" stroke="#118AB2" stroke-opacity="0.2" stroke-width="5"/>
<path id="path_47" d="M200.684 56.606C206.319 65.5403 211.954 65.5403 217.589 56.606C223.225 47.6717 228.86 47.6717 234.495 56.606" stroke="#118AB2" stroke-opacity="0.2" stroke-width="5"/>
<path id="path_48" d="M234.495 56.606C240.13 65.5403 245.765 65.5403 251.4 56.606C257.035 47.6717 262.67 47.6717 268.305 56.606" stroke="#118AB2" stroke-opacity="0.2" stroke-width="5"/>
<path id="path_49" d="M268.306 56.606C273.941 65.5403 279.576 65.5403 285.211 56.606C290.846 47.6717 296.481 47.6717 302.116 56.606" stroke="#118AB2" stroke-opacity="0.2" stroke-width="5"/>
</g>
<g id="Group 8_2">
<path id="path_50" d="M326.267 56.606C331.902 47.6717 337.537 47.6717 343.172 56.606C348.807 65.5404 354.442 65.5404 360.077 56.606" stroke="#118AB2" stroke-opacity="0.2" stroke-width="5"/>
<path id="path_51" d="M360.078 56.606C365.713 47.6717 371.348 47.6717 376.983 56.606C382.618 65.5404 388.253 65.5404 393.888 56.606" stroke="#118AB2" stroke-opacity="0.2" stroke-width="5"/>
<path id="path_52" d="M393.888 56.606C399.523 47.6717 405.158 47.6717 410.794 56.606C416.429 65.5404 422.064 65.5404 427.699 56.606" stroke="#118AB2" stroke-opacity="0.2" stroke-width="5"/>
</g>
<g id="Group 9_2">
<path id="path_53" d="M450.883 56.606C456.518 65.5403 462.154 65.5403 467.789 56.606C473.424 47.6717 479.059 47.6717 484.694 56.606" stroke="#118AB2" stroke-opacity="0.2" stroke-width="5"/>
<path id="path_54" d="M484.694 56.606C490.329 65.5403 495.965 65.5403 501.6 56.606C507.235 47.6717 512.87 47.6717 518.505 56.606" stroke="#118AB2" stroke-opacity="0.2" stroke-width="5"/>
<path id="path_55" d="M518.505 56.606C524.141 65.5403 529.776 65.5403 535.411 56.606C541.046 47.6717 546.681 47.6717 552.316 56.606" stroke="#118AB2" stroke-opacity="0.2" stroke-width="5"/>
<path id="path_56" d="M552.316 56.606C557.951 65.5403 563.586 65.5403 569.221 56.606C574.856 47.6717 580.492 47.6717 586.127 56.606" stroke="#118AB2" stroke-opacity="0.2" stroke-width="5"/>
</g>
<g id="Group 14_2">
<g id="Group 10_3">
<path id="path_57" d="M896.22 56.606C901.855 47.6717 907.49 47.6717 913.126 56.606C918.761 65.5404 924.396 65.5404 930.031 56.606" stroke="#118AB2" stroke-opacity="0.2" stroke-width="5"/>
<path id="path_58" d="M930.031 56.606C935.666 47.6717 941.302 47.6717 946.937 56.606C952.572 65.5404 958.207 65.5404 963.842 56.606" stroke="#118AB2" stroke-opacity="0.2" stroke-width="5"/>
<path id="path_59" d="M963.842 56.606C969.477 47.6717 975.112 47.6717 980.747 56.606C986.382 65.5404 992.017 65.5404 997.653 56.606" stroke="#118AB2" stroke-opacity="0.2" stroke-width="5"/>
</g>
<g id="Group 11_3">
<path id="path_60" d="M1021.8 56.606C1027.44 65.5403 1033.07 65.5403 1038.71 56.606C1044.34 47.6717 1049.98 47.6717 1055.61 56.606" stroke="#118AB2" stroke-opacity="0.2" stroke-width="5"/>
<path id="path_61" d="M1055.61 56.606C1061.25 65.5403 1066.88 65.5403 1072.52 56.606C1078.15 47.6717 1083.79 47.6717 1089.43 56.606" stroke="#118AB2" stroke-opacity="0.2" stroke-width="5"/>
<path id="path_62" d="M1089.42 56.606C1095.06 65.5403 1100.7 65.5403 1106.33 56.606C1111.97 47.6717 1117.6 47.6717 1123.24 56.606" stroke="#118AB2" stroke-opacity="0.2" stroke-width="5"/>
<path id="path_63" d="M1123.24 56.606C1128.87 65.5403 1134.51 65.5403 1140.14 56.606C1145.78 47.6717 1151.41 47.6717 1157.05 56.606" stroke="#118AB2" stroke-opacity="0.2" stroke-width="5"/>
</g>
<g id="Group 12_3">
<path id="path_64" d="M611.244 56.606C616.879 47.6717 622.514 47.6717 628.149 56.606C633.784 65.5404 639.419 65.5404 645.054 56.606" stroke="#118AB2" stroke-opacity="0.2" stroke-width="5"/>
<path id="path_65" d="M645.055 56.606C650.69 47.6717 656.325 47.6717 661.96 56.606C667.595 65.5404 673.23 65.5404 678.865 56.606" stroke="#118AB2" stroke-opacity="0.2" stroke-width="5"/>
<path id="path_66" d="M678.865 56.606C684.5 47.6717 690.136 47.6717 695.771 56.606C701.406 65.5404 707.041 65.5404 712.676 56.606" stroke="#118AB2" stroke-opacity="0.2" stroke-width="5"/>
</g>
<g id="Group 13_3">
<path id="path_67" d="M736.827 56.606C742.462 65.5403 748.097 65.5403 753.732 56.606C759.367 47.6717 765.002 47.6717 770.637 56.606" stroke="#118AB2" stroke-opacity="0.2" stroke-width="5"/>
<path id="path_68" d="M770.638 56.606C776.273 65.5403 781.908 65.5403 787.543 56.606C793.178 47.6717 798.813 47.6717 804.448 56.606" stroke="#118AB2" stroke-opacity="0.2" stroke-width="5"/>
<path id="path_69" d="M804.448 56.606C810.083 65.5403 815.719 65.5403 821.354 56.606C826.989 47.6717 832.624 47.6717 838.259 56.606" stroke="#118AB2" stroke-opacity="0.2" stroke-width="5"/>
<path id="path_70" d="M838.259 56.606C843.894 65.5403 849.53 65.5403 855.165 56.606C860.8 47.6717 866.435 47.6717 872.07 56.606" stroke="#118AB2" stroke-opacity="0.2" stroke-width="5"/>
</g>
</g>
<g id="Group 15_2">
<g id="Group 10_4">
<path id="path_71" d="M1466.17 56.606C1471.81 47.6717 1477.44 47.6717 1483.08 56.606C1488.71 65.5404 1494.35 65.5404 1499.98 56.606" stroke="#118AB2" stroke-opacity="0.2" stroke-width="5"/>
<path id="path_72" d="M1499.98 56.606C1505.62 47.6717 1511.25 47.6717 1516.89 56.606C1522.52 65.5404 1528.16 65.5404 1533.8 56.606" stroke="#118AB2" stroke-opacity="0.2" stroke-width="5"/>
<path id="path_73" d="M1533.8 56.606C1539.43 47.6717 1545.07 47.6717 1550.7 56.606C1556.34 65.5404 1561.97 65.5404 1567.61 56.606" stroke="#118AB2" stroke-opacity="0.2" stroke-width="5"/>
</g>
<g id="Group 11_4">
<path id="path_74" d="M1591.76 56.606C1597.39 65.5403 1603.03 65.5403 1608.66 56.606C1614.3 47.6717 1619.93 47.6717 1625.57 56.606" stroke="#118AB2" stroke-opacity="0.2" stroke-width="5"/>
<path id="path_75" d="M1625.57 56.606C1631.2 65.5403 1636.84 65.5403 1642.47 56.606C1648.11 47.6717 1653.74 47.6717 1659.38 56.606" stroke="#118AB2" stroke-opacity="0.2" stroke-width="5"/>
<path id="path_76" d="M1659.38 56.606C1665.01 65.5403 1670.65 65.5403 1676.28 56.606C1681.92 47.6717 1687.55 47.6717 1693.19 56.606" stroke="#118AB2" stroke-opacity="0.2" stroke-width="5"/>
<path id="path_77" d="M1693.19 56.606C1698.82 65.5403 1704.46 65.5403 1710.09 56.606C1715.73 47.6717 1721.37 47.6717 1727 56.606" stroke="#118AB2" stroke-opacity="0.2" stroke-width="5"/>
</g>
<g id="Group 12_4">
<path id="path_78" d="M1181.2 56.606C1186.83 47.6717 1192.47 47.6717 1198.1 56.606C1203.74 65.5404 1209.37 65.5404 1215.01 56.606" stroke="#118AB2" stroke-opacity="0.2" stroke-width="5"/>
<path id="path_79" d="M1215.01 56.606C1220.64 47.6717 1226.28 47.6717 1231.91 56.606C1237.55 65.5404 1243.18 65.5404 1248.82 56.606" stroke="#118AB2" stroke-opacity="0.2" stroke-width="5"/>
<path id="path_80" d="M1248.82 56.606C1254.45 47.6717 1260.09 47.6717 1265.72 56.606C1271.36 65.5404 1276.99 65.5404 1282.63 56.606" stroke="#118AB2" stroke-opacity="0.2" stroke-width="5"/>
</g>
<g id="Group 13_4">
<path id="path_81" d="M1306.78 56.606C1312.42 65.5403 1318.05 65.5403 1323.69 56.606C1329.32 47.6717 1334.96 47.6717 1340.59 56.606" stroke="#118AB2" stroke-opacity="0.2" stroke-width="5"/>
<path id="path_82" d="M1340.59 56.606C1346.23 65.5403 1351.86 65.5403 1357.5 56.606C1363.13 47.6717 1368.77 47.6717 1374.4 56.606" stroke="#118AB2" stroke-opacity="0.2" stroke-width="5"/>
<path id="path_83" d="M1374.4 56.606C1380.04 65.5403 1385.67 65.5403 1391.31 56.606C1396.94 47.6717 1402.58 47.6717 1408.21 56.606" stroke="#118AB2" stroke-opacity="0.2" stroke-width="5"/>
<path id="path_84" d="M1408.21 56.606C1413.85 65.5403 1419.48 65.5403 1425.12 56.606C1430.75 47.6717 1436.39 47.6717 1442.02 56.606" stroke="#118AB2" stroke-opacity="0.2" stroke-width="5"/>
</g>
</g>
</g>
<g id="Group 18">
<g id="Group 6_3">
<path id="path_85" d="M3 103.511C8.63513 94.577 14.2703 94.577 19.9054 103.511C25.5405 112.446 31.1757 112.446 36.8108 103.511" stroke="#118AB2" stroke-opacity="0.2" stroke-width="5"/>
<path id="path_86" d="M36.811 103.511C42.4462 94.577 48.0813 94.577 53.7164 103.511C59.3516 112.446 64.9867 112.446 70.6218 103.511" stroke="#118AB2" stroke-opacity="0.2" stroke-width="5"/>
<path id="path_87" d="M70.6216 103.511C76.2567 94.577 81.8918 94.577 87.527 103.511C93.1621 112.446 98.7972 112.446 104.432 103.511" stroke="#118AB2" stroke-opacity="0.2" stroke-width="5"/>
</g>
<g id="Group 7_3">
<path id="path_88" d="M128.583 103.511C134.218 112.446 139.853 112.446 145.488 103.511C151.124 94.5769 156.759 94.5769 162.394 103.511" stroke="#118AB2" stroke-opacity="0.2" stroke-width="5"/>
<path id="path_89" d="M162.394 103.511C168.029 112.446 173.664 112.446 179.299 103.511C184.935 94.5769 190.57 94.5769 196.205 103.511" stroke="#118AB2" stroke-opacity="0.2" stroke-width="5"/>
<path id="path_90" d="M196.205 103.511C201.84 112.446 207.475 112.446 213.11 103.511C218.745 94.5769 224.38 94.5769 230.015 103.511" stroke="#118AB2" stroke-opacity="0.2" stroke-width="5"/>
<path id="path_91" d="M230.016 103.511C235.651 112.446 241.286 112.446 246.921 103.511C252.556 94.5769 258.191 94.5769 263.826 103.511" stroke="#118AB2" stroke-opacity="0.2" stroke-width="5"/>
</g>
<g id="Group 8_3">
<path id="path_92" d="M287.977 103.511C293.612 94.577 299.247 94.577 304.882 103.511C310.517 112.446 316.152 112.446 321.787 103.511" stroke="#118AB2" stroke-opacity="0.2" stroke-width="5"/>
<path id="path_93" d="M321.788 103.511C327.423 94.577 333.058 94.577 338.693 103.511C344.328 112.446 349.963 112.446 355.598 103.511" stroke="#118AB2" stroke-opacity="0.2" stroke-width="5"/>
<path id="path_94" d="M355.598 103.511C361.233 94.577 366.868 94.577 372.504 103.511C378.139 112.446 383.774 112.446 389.409 103.511" stroke="#118AB2" stroke-opacity="0.2" stroke-width="5"/>
</g>
<g id="Group 9_3">
<path id="path_95" d="M413.56 103.511C419.195 112.446 424.83 112.446 430.465 103.511C436.1 94.5769 441.735 94.5769 447.37 103.511" stroke="#118AB2" stroke-opacity="0.2" stroke-width="5"/>
<path id="path_96" d="M447.371 103.511C453.006 112.446 458.641 112.446 464.276 103.511C469.911 94.5769 475.546 94.5769 481.181 103.511" stroke="#118AB2" stroke-opacity="0.2" stroke-width="5"/>
<path id="path_97" d="M481.181 103.511C486.816 112.446 492.451 112.446 498.087 103.511C503.722 94.5769 509.357 94.5769 514.992 103.511" stroke="#118AB2" stroke-opacity="0.2" stroke-width="5"/>
<path id="path_98" d="M514.992 103.511C520.627 112.446 526.262 112.446 531.898 103.511C537.533 94.5769 543.168 94.5769 548.803 103.511" stroke="#118AB2" stroke-opacity="0.2" stroke-width="5"/>
</g>
<g id="Group 14_3">
<g id="Group 10_5">
<path id="path_99" d="M857.93 103.511C863.565 94.577 869.2 94.577 874.836 103.511C880.471 112.446 886.106 112.446 891.741 103.511" stroke="#118AB2" stroke-opacity="0.2" stroke-width="5"/>
<path id="path_100" d="M891.741 103.511C897.376 94.577 903.011 94.577 908.647 103.511C914.282 112.446 919.917 112.446 925.552 103.511" stroke="#118AB2" stroke-opacity="0.2" stroke-width="5"/>
<path id="path_101" d="M925.552 103.511C931.187 94.577 936.822 94.577 942.457 103.511C948.092 112.446 953.727 112.446 959.363 103.511" stroke="#118AB2" stroke-opacity="0.2" stroke-width="5"/>
</g>
<g id="Group 11_5">
<path id="path_102" d="M983.513 103.511C989.148 112.446 994.783 112.446 1000.42 103.511C1006.05 94.5769 1011.69 94.5769 1017.32 103.511" stroke="#118AB2" stroke-opacity="0.2" stroke-width="5"/>
<path id="path_103" d="M1017.32 103.511C1022.96 112.446 1028.59 112.446 1034.23 103.511C1039.86 94.5769 1045.5 94.5769 1051.14 103.511" stroke="#118AB2" stroke-opacity="0.2" stroke-width="5"/>
<path id="path_104" d="M1051.13 103.511C1056.77 112.446 1062.41 112.446 1068.04 103.511C1073.68 94.5769 1079.31 94.5769 1084.95 103.511" stroke="#118AB2" stroke-opacity="0.2" stroke-width="5"/>
<path id="path_105" d="M1084.95 103.511C1090.58 112.446 1096.22 112.446 1101.85 103.511C1107.49 94.5769 1113.12 94.5769 1118.76 103.511" stroke="#118AB2" stroke-opacity="0.2" stroke-width="5"/>
</g>
<g id="Group 12_5">
<path id="path_106" d="M572.954 103.511C578.589 94.577 584.224 94.577 589.859 103.511C595.494 112.446 601.129 112.446 606.764 103.511" stroke="#118AB2" stroke-opacity="0.2" stroke-width="5"/>
<path id="path_107" d="M606.765 103.511C612.4 94.577 618.035 94.577 623.67 103.511C629.305 112.446 634.94 112.446 640.575 103.511" stroke="#118AB2" stroke-opacity="0.2" stroke-width="5"/>
<path id="path_108" d="M640.575 103.511C646.21 94.577 651.845 94.577 657.481 103.511C663.116 112.446 668.751 112.446 674.386 103.511" stroke="#118AB2" stroke-opacity="0.2" stroke-width="5"/>
</g>
<g id="Group 13_5">
<path id="path_109" d="M698.537 103.511C704.172 112.446 709.807 112.446 715.442 103.511C721.077 94.5769 726.712 94.5769 732.347 103.511" stroke="#118AB2" stroke-opacity="0.2" stroke-width="5"/>
<path id="path_110" d="M732.348 103.511C737.983 112.446 743.618 112.446 749.253 103.511C754.888 94.5769 760.523 94.5769 766.158 103.511" stroke="#118AB2" stroke-opacity="0.2" stroke-width="5"/>
<path id="path_111" d="M766.158 103.511C771.793 112.446 777.428 112.446 783.064 103.511C788.699 94.5769 794.334 94.5769 799.969 103.511" stroke="#118AB2" stroke-opacity="0.2" stroke-width="5"/>
<path id="path_112" d="M799.969 103.511C805.604 112.446 811.24 112.446 816.875 103.511C822.51 94.5769 828.145 94.5769 833.78 103.511" stroke="#118AB2" stroke-opacity="0.2" stroke-width="5"/>
</g>
</g>
<g id="Group 15_3">
<g id="Group 10_6">
<path id="path_113" d="M1427.88 103.511C1433.52 94.577 1439.15 94.577 1444.79 103.511C1450.42 112.446 1456.06 112.446 1461.69 103.511" stroke="#118AB2" stroke-opacity="0.2" stroke-width="5"/>
<path id="path_114" d="M1461.69 103.511C1467.33 94.577 1472.96 94.577 1478.6 103.511C1484.23 112.446 1489.87 112.446 1495.51 103.511" stroke="#118AB2" stroke-opacity="0.2" stroke-width="5"/>
<path id="path_115" d="M1495.51 103.511C1501.14 94.577 1506.78 94.577 1512.41 103.511C1518.05 112.446 1523.68 112.446 1529.32 103.511" stroke="#118AB2" stroke-opacity="0.2" stroke-width="5"/>
</g>
<g id="Group 11_6">
<path id="path_116" d="M1553.47 103.511C1559.1 112.446 1564.74 112.446 1570.37 103.511C1576.01 94.5769 1581.64 94.5769 1587.28 103.511" stroke="#118AB2" stroke-opacity="0.2" stroke-width="5"/>
<path id="path_117" d="M1587.28 103.511C1592.91 112.446 1598.55 112.446 1604.18 103.511C1609.82 94.5769 1615.45 94.5769 1621.09 103.511" stroke="#118AB2" stroke-opacity="0.2" stroke-width="5"/>
<path id="path_118" d="M1621.09 103.511C1626.72 112.446 1632.36 112.446 1637.99 103.511C1643.63 94.5769 1649.26 94.5769 1654.9 103.511" stroke="#118AB2" stroke-opacity="0.2" stroke-width="5"/>
<path id="path_119" d="M1654.9 103.511C1660.53 112.446 1666.17 112.446 1671.8 103.511C1677.44 94.5769 1683.07 94.5769 1688.71 103.511" stroke="#118AB2" stroke-opacity="0.2" stroke-width="5"/>
</g>
<g id="Group 12_6">
<path id="path_120" d="M1142.91 103.511C1148.54 94.577 1154.18 94.577 1159.81 103.511C1165.45 112.446 1171.08 112.446 1176.72 103.511" stroke="#118AB2" stroke-opacity="0.2" stroke-width="5"/>
<path id="path_121" d="M1176.72 103.511C1182.35 94.577 1187.99 94.577 1193.62 103.511C1199.26 112.446 1204.89 112.446 1210.53 103.511" stroke="#118AB2" stroke-opacity="0.2" stroke-width="5"/>
<path id="path_122" d="M1210.53 103.511C1216.16 94.577 1221.8 94.577 1227.43 103.511C1233.07 112.446 1238.7 112.446 1244.34 103.511" stroke="#118AB2" stroke-opacity="0.2" stroke-width="5"/>
</g>
<g id="Group 13_6">
<path id="path_123" d="M1268.49 103.511C1274.13 112.446 1279.76 112.446 1285.4 103.511C1291.03 94.5769 1296.67 94.5769 1302.3 103.511" stroke="#118AB2" stroke-opacity="0.2" stroke-width="5"/>
<path id="path_124" d="M1302.3 103.511C1307.94 112.446 1313.57 112.446 1319.21 103.511C1324.84 94.5769 1330.48 94.5769 1336.11 103.511" stroke="#118AB2" stroke-opacity="0.2" stroke-width="5"/>
<path id="path_125" d="M1336.11 103.511C1341.75 112.446 1347.38 112.446 1353.02 103.511C1358.65 94.5769 1364.29 94.5769 1369.92 103.511" stroke="#118AB2" stroke-opacity="0.2" stroke-width="5"/>
<path id="path_126" d="M1369.92 103.511C1375.56 112.446 1381.19 112.446 1386.83 103.511C1392.46 94.5769 1398.1 94.5769 1403.73 103.511" stroke="#118AB2" stroke-opacity="0.2" stroke-width="5"/>
</g>
</g>
</g>
</g>
</g>
</svg>
