<svg width="119" height="119" viewBox="0 0 119 119" fill="none" xmlns="http://www.w3.org/2000/svg">
<path d="M59.4504 8.91666C32.0804 8.91666 9.91666 31.13 9.91666 58.5C9.91666 85.87 32.0804 108.083 59.4504 108.083C86.87 108.083 109.083 85.87 109.083 58.5C109.083 31.13 86.87 8.91666 59.4504 8.91666ZM93.8117 38.6667H79.1846C77.5979 32.4687 75.3171 26.5187 72.3421 21.015C81.4654 24.1387 89.0517 30.4854 93.8117 38.6667ZM59.5 19.0317C63.6154 24.9817 66.8383 31.5762 68.9704 38.6667H50.0296C52.1617 31.5762 55.3846 24.9817 59.5 19.0317ZM21.1225 68.4167C20.3292 65.2433 19.8333 61.9212 19.8333 58.5C19.8333 55.0788 20.3292 51.7567 21.1225 48.5833H37.8817C37.485 51.8558 37.1875 55.1283 37.1875 58.5C37.1875 61.8717 37.485 65.1442 37.8817 68.4167H21.1225ZM25.1883 78.3333H39.8154C41.4021 84.5312 43.6829 90.4812 46.6579 95.985C37.5346 92.8613 29.9483 86.5642 25.1883 78.3333ZM39.8154 38.6667H25.1883C29.9483 30.4358 37.5346 24.1387 46.6579 21.015C43.6829 26.5187 41.4021 32.4687 39.8154 38.6667ZM59.5 97.9683C55.3846 92.0183 52.1617 85.4238 50.0296 78.3333H68.9704C66.8383 85.4238 63.6154 92.0183 59.5 97.9683ZM71.1025 68.4167H47.8975C47.4512 65.1442 47.1042 61.8717 47.1042 58.5C47.1042 55.1283 47.4512 51.8062 47.8975 48.5833H71.1025C71.5487 51.8062 71.8958 55.1283 71.8958 58.5C71.8958 61.8717 71.5487 65.1442 71.1025 68.4167ZM72.3421 95.985C75.3171 90.4812 77.5979 84.5312 79.1846 78.3333H93.8117C89.0517 86.5146 81.4654 92.8613 72.3421 95.985ZM81.1183 68.4167C81.515 65.1442 81.8125 61.8717 81.8125 58.5C81.8125 55.1283 81.515 51.8558 81.1183 48.5833H97.8775C98.6708 51.7567 99.1667 55.0788 99.1667 58.5C99.1667 61.9212 98.6708 65.2433 97.8775 68.4167H81.1183Z" fill="#0095B6"/>
</svg>
