<svg width="113" height="103" viewBox="0 0 113 103" fill="none" xmlns="http://www.w3.org/2000/svg">
<path d="M25.8276 88.653L24.5365 85.945L24.5365 85.945L25.8276 88.653ZM95.4593 4.91463L98.3573 5.69014L98.3573 5.69014L95.4593 4.91463ZM98.5692 1.49916C97.7403 0.0645529 95.9054 -0.426476 94.4708 0.402417L71.0925 13.91C69.6579 14.7389 69.1669 16.5738 69.9957 18.0084C70.8246 19.4431 72.6596 19.9341 74.0942 19.1052L94.8749 7.09844L106.882 27.8791C107.711 29.3138 109.545 29.8048 110.98 28.9759C112.415 28.147 112.906 26.3121 112.077 24.8775L98.5692 1.49916ZM3.14791 102.79L27.1188 91.3609L24.5365 85.945L0.565625 97.3743L3.14791 102.79ZM98.3573 5.69014L98.8697 3.77552L93.0736 2.22449L92.5613 4.13911L98.3573 5.69014ZM27.1188 91.3609C62.2587 74.6062 88.2937 43.2968 98.3573 5.69014L92.5613 4.13911C82.9516 40.0492 58.0912 69.9462 24.5365 85.945L27.1188 91.3609Z" fill="#EDEDED"/>
</svg>
