<svg width="1439" height="320" viewBox="0 0 1439 320" fill="none" xmlns="http://www.w3.org/2000/svg">
<path d="M0 64L26.7 74.7C53.3 85 107 107 160 112C213.3 117 267 107 320 122.7C373.3 139 427 181 480 213.3C533.3 245 587 267 640 261.3C693.3 256 747 224 800 202.7C853.3 181 907 171 960 181.3C1013.3 192 1067 224 1120 245.3C1173.3 267 1227 277 1280 245.3C1333.3 213 1387 139 1413 101.3L1440 64V320H1413.3C1386.7 320 1333 320 1280 320C1226.7 320 1173 320 1120 320C1066.7 320 1013 320 960 320C906.7 320 853 320 800 320C746.7 320 693 320 640 320C586.7 320 533 320 480 320C426.7 320 373 320 320 320C266.7 320 213 320 160 320C106.7 320 53 320 27 320H0V64Z" fill="#EF476F"/>
</svg>
