<svg width="1027" height="738" viewBox="0 0 1027 738" fill="none" xmlns="http://www.w3.org/2000/svg">
<path d="M7 12C7 9.23857 9.23858 7 12 7H1022C1024.76 7 1027 9.23858 1027 12V733C1027 735.761 1024.76 738 1022 738H12C9.23856 738 7 735.761 7 733V12Z" fill="#1A073B"/>
<path d="M0 4.99999C0 2.23857 2.23858 0 5 0H1015C1017.76 0 1020 2.23858 1020 5V726C1020 728.761 1017.76 731 1015 731H4.99998C2.23856 731 0 728.761 0 726V4.99999Z" fill="#EDEDED"/>
<g clip-path="url(#clip0_113_2)">
<path d="M225.715 563.105C232.765 592.11 256.914 610.074 256.914 610.074C256.914 610.074 269.632 581.011 262.582 552.006C255.531 523 231.383 505.037 231.383 505.037C231.383 505.037 218.665 534.1 225.715 563.105Z" fill="#073B4C"/>
<path d="M236.075 556.871C255.421 577.831 257.784 610.05 257.784 610.05C257.784 610.05 228.781 608.287 209.434 587.328C190.088 566.369 187.726 534.15 187.726 534.15C187.726 534.15 216.729 535.912 236.075 556.871Z" fill="#06D6A0"/>
<path d="M867.635 637.66H186.404V640H867.635V637.66Z" fill="#073B4C"/>
<path d="M266.462 638.83H239.128V608.41H266.462V638.83ZM241.231 636.49H264.359V610.75H241.231V636.49Z" fill="#073B4C"/>
<path d="M324.647 78.1971H93V336.003H324.647V78.1971Z" fill="#073B4C"/>
<path d="M324.647 142.338V148.255C321.116 145.652 318.266 142.057 316.386 137.834C313.302 130.814 313.399 122.723 313.497 114.896C313.609 105.593 313.72 96.8181 308.417 91.1029C302.584 84.8285 293.249 85.7138 284.22 86.568C283.16 86.6612 282.099 86.7698 281.052 86.863C271.996 87.6241 261.907 85.0771 257.009 78.1971H263.121C267.6 81.5516 274.452 82.732 280.745 82.2039C281.764 82.1262 282.811 82.0175 283.857 81.9243C293.36 81.0236 304.133 79.9986 311.32 87.7483C317.935 94.8612 317.809 105.08 317.683 114.958C317.586 122.242 317.502 129.758 320.153 135.784C321.253 138.273 322.78 140.5 324.647 142.338Z" fill="#06D6A0"/>
<path d="M324.647 183.261V190.187C323.63 188.709 322.49 187.342 321.242 186.103C314.041 179.036 303.701 177.483 293.709 175.961C292.412 175.775 291.142 175.573 289.872 175.371C273.67 172.778 263.623 166.581 259.172 156.471C256.088 149.451 256.185 141.359 256.283 133.532C256.395 124.229 256.506 115.455 251.204 109.739C245.37 103.465 236.035 104.35 227.006 105.205C225.946 105.298 224.885 105.406 223.839 105.5C212.2 106.478 198.846 101.99 197.018 89.8605C196.39 85.6982 197.325 81.8778 198.706 78.1971H203.283C201.748 81.8933 200.604 85.4653 201.148 89.084C202.53 98.3401 213.721 101.664 223.531 100.84C224.55 100.763 225.597 100.654 226.643 100.561C236.147 99.6602 246.919 98.6351 254.106 106.385C260.721 113.498 260.595 123.717 260.469 133.594C260.372 140.878 260.288 148.395 262.939 154.421C266.735 163.056 275.736 168.398 290.472 170.759C291.728 170.961 292.998 171.162 294.267 171.349C304.873 172.949 315.855 174.61 324.019 182.608C324.228 182.81 324.437 183.028 324.647 183.261Z" fill="#06D6A0"/>
<path d="M324.647 300.019V309.586C319.609 303.622 315.395 295.437 312.171 285.203C311.487 283.028 310.832 280.808 310.176 278.587C306.561 266.426 302.822 253.862 293.919 245.833C284.402 237.26 270.768 235.365 257.581 233.533C255.892 233.3 254.204 233.067 252.529 232.818C231.151 229.666 217.908 222.165 212.033 209.895C207.958 201.369 208.084 191.554 208.209 182.065C208.363 170.79 208.516 160.136 201.511 153.209C193.822 145.599 181.5 146.671 169.597 147.711C168.187 147.836 166.792 147.96 165.424 148.069C150.06 149.249 132.436 143.813 130.036 129.106C128.849 121.9 131.878 115.517 134.794 109.336C136.469 105.795 138.059 102.425 138.869 98.9613C140.571 91.8328 138.464 83.8036 133.789 78.1971H140.627C142.6 81.3864 143.943 85.0055 144.566 88.8152C145.189 92.6249 145.078 96.5383 144.241 100.297C143.278 104.35 141.492 108.14 139.762 111.805C137.097 117.427 134.599 122.738 135.478 128.174C137.32 139.387 152.07 143.425 165.006 142.431C166.359 142.322 167.741 142.198 169.122 142.089C181.654 140.987 195.859 139.76 205.349 149.156C214.07 157.775 213.903 170.168 213.735 182.143C213.624 190.979 213.498 200.096 216.987 207.411C221.996 217.863 233.886 224.354 253.325 227.227C254.971 227.476 256.646 227.709 258.32 227.942C272.331 229.883 286.802 231.887 297.561 241.593C307.65 250.694 311.627 264.035 315.451 276.94C316.106 279.146 316.762 281.32 317.432 283.479C319.206 289.306 321.63 294.863 324.647 300.019Z" fill="#06D6A0"/>
<path d="M93 182.298C99.3633 190.871 112.857 194.039 124.956 193.107C126.324 192.998 127.719 192.874 129.129 192.75C141.032 191.709 153.354 190.638 161.043 198.248C168.048 205.174 167.894 215.828 167.741 227.103C167.615 236.592 167.49 246.408 171.565 254.934C177.439 267.203 190.682 274.704 212.061 277.857C213.735 278.105 215.424 278.338 217.112 278.571C230.3 280.404 243.933 282.299 253.45 290.871C262.353 298.901 266.093 311.465 269.707 323.625C270.363 325.846 271.019 328.067 271.703 330.241C272.331 332.245 273.001 334.155 273.698 336.003H279.671C278.624 333.471 277.731 330.94 276.964 328.517C276.294 326.359 275.638 324.184 274.982 321.979C271.159 309.073 267.182 295.732 257.092 286.632C246.333 276.925 231.862 274.922 217.852 272.98C216.177 272.747 214.503 272.514 212.856 272.266C193.417 269.393 181.528 262.901 176.518 252.449C173.03 245.134 173.155 236.018 173.267 227.181C173.434 215.207 173.602 202.814 164.88 194.194C155.391 184.798 141.185 186.025 128.654 187.128C127.273 187.237 125.891 187.361 124.537 187.47C111.602 188.464 96.8515 184.426 95.0095 173.213C94.1304 167.777 96.6282 162.466 99.2936 156.844C101.024 153.178 102.81 149.389 103.773 145.335C106.396 134.247 101.973 121.962 93 115.253V122.863C97.8981 128.485 100.131 136.7 98.4005 144C97.5911 147.463 96.0003 150.833 94.3257 154.374C93.8792 155.321 93.4326 156.253 93 157.216L93 182.298Z" fill="#06D6A0"/>
<path d="M195.469 336.003H189.678C189.371 334.993 189.078 333.968 188.771 332.943C185.156 320.783 181.416 308.219 172.513 300.19C162.996 291.617 149.363 289.722 136.176 287.889C134.487 287.657 132.799 287.424 131.124 287.175C112.257 284.395 99.7122 278.214 93 268.368V252.915C93.4314 256 94.3029 258.988 95.5816 261.767C100.591 272.219 112.481 278.711 131.919 281.584C133.566 281.833 135.241 282.066 136.915 282.299C150.926 284.24 165.397 286.243 176.156 295.95C186.245 305.051 190.222 318.391 194.045 331.297C194.52 332.881 194.98 334.45 195.469 336.003Z" fill="#06D6A0"/>
<path d="M638.626 78.1971H406.979V336.003H638.626V78.1971Z" fill="#073B4C"/>
<path d="M518.616 96.8337C518.615 111.358 515.161 125.624 508.604 138.183C502.048 150.741 492.622 161.146 481.285 168.339C469.947 175.533 457.101 179.26 444.051 179.142C431 179.025 418.21 175.066 406.979 167.668V78.1971H516.704C517.981 84.3072 518.623 90.5605 518.616 96.8337Z" fill="#06D6A0"/>
<path d="M578.621 197.782C603.283 197.782 623.275 175.531 623.275 148.084C623.275 120.637 603.283 98.3867 578.621 98.3867C553.959 98.3867 533.966 120.637 533.966 148.084C533.966 175.531 553.959 197.782 578.621 197.782Z" fill="#06D6A0"/>
<path d="M478.147 289.411C495.873 289.411 510.243 273.419 510.243 253.691C510.243 233.964 495.873 217.971 478.147 217.971C460.422 217.971 446.052 233.964 446.052 253.691C446.052 273.419 460.422 289.411 478.147 289.411Z" fill="#06D6A0"/>
<path d="M638.626 293.76V336.003H592.701C590.751 329.208 590.673 321.919 592.478 315.074C594.283 308.23 597.888 302.143 602.829 297.599C607.769 293.055 613.819 290.26 620.199 289.576C626.579 288.892 632.996 290.349 638.626 293.76H638.626Z" fill="#06D6A0"/>
<path d="M559.084 261.457C563.708 261.457 567.457 257.285 567.457 252.138C567.457 246.992 563.708 242.82 559.084 242.82C554.46 242.82 550.712 246.992 550.712 252.138C550.712 257.285 554.46 261.457 559.084 261.457Z" fill="#06D6A0"/>
<path d="M954 78.1971H722.353V336.003H954V78.1971Z" fill="#073B4C"/>
<path d="M835.386 78.1971V183.804H722.353V190.017H840.968V78.1971H835.386Z" fill="#06D6A0"/>
<path d="M944.413 336.003L954 320.83V310.036L937.589 336.003H944.413ZM905.48 224.836L854.113 306.138L892.279 336.003H901.977L861.885 304.631L906.833 233.486L954 270.402V262.808L905.48 224.836Z" fill="#06D6A0"/>
<path d="M820.036 214.539L790.438 247.479L820.036 280.419L849.633 247.479L820.036 214.539ZM798.322 247.479L820.036 223.314L841.749 247.479L820.036 271.645L798.322 247.479Z" fill="#06D6A0"/>
<path d="M509.833 214.705C520.865 214.705 529.808 204.752 529.808 192.475C529.808 180.198 520.865 170.245 509.833 170.245C498.802 170.245 489.859 180.198 489.859 192.475C489.859 204.752 498.802 214.705 509.833 214.705Z" fill="#FFB8B8"/>
<path d="M499.32 203.005C499.32 203.005 504.577 233.425 502.474 239.275C500.372 245.125 531.91 236.935 531.91 236.935C531.91 236.935 525.603 206.515 526.654 199.495C527.705 192.475 499.32 203.005 499.32 203.005Z" fill="#FFB8B8"/>
<path d="M464.629 308.305L466.731 339.895L477.166 389.507L480.397 403.075L485.654 382.015L480.397 334.045L478.612 312.448L464.629 308.305Z" fill="#FFB8B8"/>
<path d="M575.013 303.625V336.385C575.013 336.385 571.859 378.505 565.551 389.035C559.244 399.565 557.141 346.915 557.141 346.915L562.084 308.305L575.013 303.625Z" fill="#FFB8B8"/>
<path d="M481.449 405.415C481.449 405.415 476.192 412.435 480.397 483.805C484.603 555.175 478.295 606.655 491.962 606.655C491.962 606.655 487.756 621.865 499.321 623.035C510.885 624.205 516.141 625.375 517.192 621.865C518.244 618.355 520.346 601.975 517.192 601.975C517.192 601.975 517.192 606.655 519.295 587.935C521.397 569.215 521.397 480.295 526.654 468.595L543.474 511.885C543.474 511.885 543.474 531.775 546.628 541.135C549.782 550.495 555.038 604.315 555.038 604.315L553.987 612.505C553.987 612.505 579.218 617.185 580.269 612.505C581.321 607.825 581.321 600.805 580.269 598.465C579.218 596.125 579.218 596.125 581.321 591.445C583.423 586.765 583.423 583.255 582.372 579.745C581.321 576.235 581.321 500.185 581.321 500.185C581.321 500.185 579.218 407.755 566.603 403.075C553.987 398.395 481.449 405.415 481.449 405.415Z" fill="#1A073B"/>
<path d="M495.115 613.675L486.705 630.055C486.705 630.055 473.564 624.79 476.192 638.245C498.795 640 514.564 637.66 514.564 637.66C514.564 637.66 519.82 640 520.872 636.49C521.923 632.98 518.244 620.695 515.09 620.695C511.936 620.695 495.115 613.675 495.115 613.675Z" fill="#1A073B"/>
<path d="M556.09 608.995C556.09 608.995 547.68 630.055 550.833 631.225C553.987 632.395 582.372 637.075 584.474 638.245C586.577 639.415 597.09 640.585 598.141 633.565C599.192 626.545 592.885 624.205 592.885 624.205C592.885 624.205 581.321 621.865 578.167 610.165C575.013 598.465 556.09 608.995 556.09 608.995Z" fill="#1A073B"/>
<path d="M534.013 233.425C534.013 233.425 505.628 227.575 499.32 233.425C493.013 239.275 466.731 250.975 466.731 256.825C466.731 262.675 480.397 320.005 480.397 320.005C480.397 320.005 473.038 406.585 480.397 408.925C487.756 411.265 500.372 404.245 515.09 412.435C529.808 420.625 571.859 405.415 571.859 405.415C571.859 405.415 556.09 330.535 560.295 316.495C564.5 302.455 567.654 254.485 567.654 254.485C567.654 254.485 549.782 233.425 534.013 233.425Z" fill="#118AB2"/>
<path d="M474.09 253.315L466.731 255.655C466.731 255.655 450.962 310.645 457.269 312.985C463.577 315.325 481.449 320.005 483.551 320.005C485.654 320.005 474.09 253.315 474.09 253.315Z" fill="#118AB2"/>
<path d="M550.833 247.465L567.654 254.485C567.654 254.485 589.731 300.115 584.474 305.965C579.218 311.815 556.09 317.665 556.09 317.665L550.833 247.465Z" fill="#118AB2"/>
<path d="M509.227 165.018C507.566 164.683 505.858 164.767 504.23 165.263C502.927 165.905 501.727 166.781 500.679 167.856C498.777 169.543 496.745 171.041 494.608 172.332C492.904 173.362 491.073 174.314 489.884 176.018C489.322 176.879 488.873 177.824 488.55 178.826C486.502 184.65 485.951 190.993 486.96 197.145C487.074 198.019 487.31 198.867 487.661 199.66C488.753 201.9 491.167 202.783 493.2 203.958C497.059 206.188 499.985 209.942 503.151 213.261C504.326 214.567 505.648 215.7 507.082 216.633C511.599 219.373 517.119 218.479 522.189 217.51C522.548 217.509 522.903 217.429 523.235 217.275C523.566 217.121 523.867 216.895 524.119 216.61C524.372 216.326 524.572 215.989 524.706 215.618C524.841 215.248 524.909 214.851 524.906 214.451L528.907 194.42C529.633 191.453 529.978 188.386 529.933 185.31C529.654 180.448 527.288 173.712 524.082 170.258C520.346 166.234 514.11 165.593 509.227 165.018Z" fill="#1A073B"/>
</g>
<defs>
<clipPath id="clip0_113_2">
<rect width="861" height="585" fill="white" transform="translate(93 55)"/>
</clipPath>
</defs>
</svg>
